<svg version="1" xmlns="http://www.w3.org/2000/svg" width="620" height="88" viewBox="0 0 465.000000 66.000000"><g fill="#ef484d"><path d="M147.5 1.6c-.7 1.1-3 1.8-6.3 2.2-2.8.2-5.7 1.1-6.3 1.8-.6.8-1.7 1.4-2.4 1.4-1.9 0-9.4 8.8-10.2 11.9-.3 1.3-1.2 3.6-1.9 5-.9 1.6-1.4 5.9-1.4 10.9 0 7.3.4 9.1 3.1 14.5 3.7 7.5 4.1 8 9.4 11.6 5 3.4 9.3 4.3 19.5 4.3 9.1 0 14.5-.9 16.1-2.8.6-.8 1.7-1.4 2.4-1.4 1.6 0 7.3-6.4 8.8-9.9.6-1.4 1.8-3.4 2.6-4.4 1.5-1.7 1.3-2.1-2.1-5.3-2.1-1.9-4.2-3.4-4.8-3.4-1 0-4 5.2-4 7.1 0 2.3-6.2 8.8-10.3 10.8-5.3 2.6-14.8 2.9-16.7.6-.7-.8-1.8-1.5-2.4-1.5-1.8-.1-6.2-4.2-7.9-7.5-7.5-14.3-3-29.3 10.8-35.4 6.4-2.8 8.8-2.6 16.5 1.3 6 3 6.7 3.7 8.5 8.5 2.2 5.6 4.7 7.1 8.4 5.1 2-1 2.2-1.8 1.9-10.3l-.3-9.2h-5.7c-3.9 0-6.2-.5-7.5-1.8-1.1-.9-3.4-1.7-5.1-1.7-1.9 0-4-.8-5.2-2-2.4-2.4-6.1-2.6-7.5-.4zM215.5 1.6c-.7 1.1-3 1.8-6.3 2.2-2.8.2-5.7 1.1-6.3 1.8-.6.8-1.7 1.4-2.4 1.4-1.7 0-7.8 7.1-10.7 12.4-2 3.6-2.3 5.5-2.2 15.1.1 9.3.4 11.6 2.2 15.1 6.2 11.6 13.9 15.7 29.2 15.7 13 0 15.6-.8 22.4-7.7 4.7-4.7 6.5-7.4 7.9-11.7 6.2-19.9-4.6-40.1-22.5-42.4-3.2-.4-4.8-1.1-4.8-2.1 0-2-5.2-1.8-6.5.2zm8 9.3c.3.5 1.9 1.2 3.5 1.6 1.7.4 5 2.6 7.4 5.1 7.2 7.1 8.6 18.6 3.6 28.7-4.9 9.8-17.9 14.6-27 9.9-5.7-2.9-7.6-4.5-10.9-9.3-2.8-4.2-3.1-5.4-3.1-12.3 0-6.5.4-8.3 2.6-11.8 2.9-4.6 8.2-9.8 10-9.8.6 0 2.5-.7 4-1.5 3.2-1.7 9-2 9.9-.6zM428 1.5c0 1.1-1.1 1.5-4.2 1.5-4.1 0-4.7.4-16.1 12-6.5 6.6-12.3 11.8-12.8 11.4-1.1-.7-1.2-12.4 0-14.3.5-.8 1.6-1.1 3-.6 2.8.9 5.1-1 5.1-4.3 0-3.2-2.8-5.4-5.3-4-2.1 1.1-15.2.7-17.9-.6-1.4-.6-2-.2-2.8 1.9-.5 1.4-.7 3.8-.4 5.2.6 2.1 1.1 2.4 3.4 1.9 1.7-.3 3.3 0 3.9.7.6.9 1 9.8 1 24.8-.1 28.8.3 30.7 5.1 27.7 1.5-1 2.6-1 5.3 0 6.1 2.2 7.7 1.3 7.7-4.4 0-2.4-.9-2.8-5.7-2.4-1.8.1-2.3-.5-2.7-3.2-1.1-7.5-1.4-14.8-.5-14.9.5-.1 1.3-.2 1.8-.3.4-.1 3.5 3.3 6.8 7.4 3.3 4.1 8.4 10 11.4 13 5.4 5.5 5.5 5.5 11.7 5.7 5.7.1 6.3-.1 6.8-2.2 1.1-4.3.1-6-3.3-5.9-2.5.2-4-.6-6.5-3.3-1.8-2-7-7.4-11.5-12.1-4.6-4.7-8.3-9.1-8.3-9.7 0-.7 1.9-2.8 4.3-4.7 2.3-2 6.9-6.3 10.2-9.7 5.6-5.8 6.3-6.2 10-5.9 3.9.3 4 .2 4.3-3 .3-3.3-1.6-9.2-3-9.2-.5 0-.8.7-.8 1.5zM451.3 1.2c.1.7-.5 1.3-1.3 1.3-2.9.1-4 1.7-4 5.9 0 4.3.1 4.4 3.8 4.8 2 .3 4.3.3 5 0 1.5-.5 1.6-7.3 0-10.7-1.1-2.5-4-3.6-3.5-1.3zM110 3.1c-.9.6-10.9.9-24.5.8l-23-.2v3.9c0 3.7.2 3.9 3 3.9 5.6.1 5.5-.4 4.9 26.1-.2 13.5-.2 25.5.1 26.5.7 2 4 2.6 5 .9.9-1.4 24.6-1.3 31.7.2 6.6 1.4 7.8.7 7.8-4.4 0-3.8-1.8-4.4-11.2-3.6-4.6.3-11.8.7-16 .7-6.8.1-7.8-.1-7.9-1.7-.3-5-.1-18.3.3-18.7.3-.3 5.6-.1 11.9.4 12.5 1 12.9.9 12.9-4.5 0-4.9-1.3-5.4-13-4.5-5.8.5-10.9.5-11.4.1-.8-.8-1.5-14.4-.8-16.6.3-1.2 23.1-1.2 25 0 .7.4.9 2.3.5 5.1-.5 4.2-.4 4.4 2.1 5.1 1.5.3 3.8.2 5.2-.5 2.2-1 2.4-1.6 2.4-8.9 0-6.3-.4-8.2-1.8-9.5-1.2-1.1-2.2-1.3-3.2-.6zM251.8 3.6c-1.1 1-1 5.6.1 7.3.6.9 1.9 1.2 4 .8 1.8-.4 3.3-.2 3.7.5.4.6.7 12.8.8 27.2l.1 26.1 4.7.3c4.4.3 4.8.1 5.4-2.3.4-1.5.3-7.9-.1-14.4-.6-11.7-.6-11.8 1.6-12.4 3.3-.9 8 .3 8.5 2.2.3.9 1.2 3.2 2.1 5.1.8 1.9 2.1 4.8 2.8 6.5 2.4 5.7 5.5 12 6.8 13.5.8 1.1 3.3 1.6 7.9 1.7l6.7.2.7-3.5c.8-4.2.2-4.9-4.2-4.9-3.8 0-4.5-.9-9.5-12-1.2-2.8-2.7-5.3-3.2-5.6-1.6-1.1-.3-5.3 1.8-5.9 6.1-1.6 9.5-7 9.5-15 0-5.9-.1-6.2-4.6-10.5L292.8 4h-16.6c-9.2 0-18.3-.3-20.2-.6-1.9-.3-3.8-.2-4.2.2zm35.9 9.3c2.7 1.4 5.3 5 5.3 7.2 0 .9-1.4 3.1-3.2 4.8-3 3-3.5 3.1-11.5 3.1H270v-8c0-6 .4-8.1 1.5-8.8 1.9-1 13.3.1 16.2 1.7zM339.6 5c-.8.8-1.6 2.6-1.9 4-.3 1.4-1.5 5-2.6 8-1.2 3-3.1 8.4-4.3 12-1.1 3.6-2.6 7.8-3.3 9.5-1.8 4.2-3.5 9.4-4.5 13.3-1.2 4.8-2.8 6.4-6.1 5.7-3.3-.8-4.2.5-3.4 4.8l.6 3.3h7.5c7.2 0 7.5-.1 8-2.6 1-4.4 5.6-17.5 6.6-18.5.5-.5 5-1 9.9-1l9.1-.1 2.5 5.4c2.9 6.5 2.7 8.6-1 9-3.4.4-4.1 1.9-2.8 5.5.8 1.9 1.8 2.7 3.5 2.7 1.4 0 2.8-.5 3.1-1 .9-1.4 10.1-1.2 12.5.2 2.8 1.8 5.4-.1 5.8-4.1.3-2.4-.1-3.1-1.5-3.2-1-.1-2.6-.2-3.6-.3-2.5-.1-5.9-6.8-8.7-17.1-1.6-5.8-4.1-12.3-8-20.8-2.5-5.5-2.1-7.7 1.4-7.7 2.8 0 4.3-3.2 3.2-6.7-.5-1.7-1.7-1.9-10.7-1.8-7.6 0-10.3.4-11.3 1.5zm8.8 12.7c.3 1 .8 3.6 1.2 5.8.3 2.2 1.3 5 2.1 6.3 2.7 4.3 1.4 5.7-5.5 5.8-7.2.2-9.6-1.4-6.8-4.4.9-1 1.6-2.8 1.6-4 0-1.1.4-2.3.9-2.6.5-.4 1.2-2.4 1.6-4.6.5-3 1.1-4 2.5-4 1 0 2.1.8 2.4 1.7zM.4 5.4C-.8 8.5.5 10.5 4 11l3.5.5.3 27.4.2 27.3 2.8-.7c1.5-.4 9.3-.9 17.3-1.1 12.5-.2 15.2-.6 18.6-2.4 3.7-1.9 9.3-7.1 9.3-8.7 0-.3.6-1.4 1.4-2.2 2.3-2.7 4.8-14.9 4.1-20-.8-5.7-2.5-11.1-4.2-13.2-.7-.8-1.3-2-1.3-2.5 0-1.5-7.4-8.4-9-8.4-.8 0-2.4-.7-3.4-1.5C40.7 3.3 1.2 3.3.4 5.4zm34.9 7.2c4.1.5 5.6 1.4 9.7 5.5 4.3 4.3 4.9 5.5 5.6 10.5 1.4 11.4-.9 19.8-6.7 24.1-4.5 3.4-12.2 5.4-19.5 5.1l-6.9-.3-.3-22c-.1-12.1 0-22.6.3-23.3.5-1.4 2.7-1.3 17.8.4zM449.5 15.9l-3 .6-.2 19c-.1 10.5-.2 19.8-.3 20.9 0 1.4-.5 1.7-2.3 1.3-3.6-1-5.1.6-4.3 4.7.5 2.6 1.2 3.6 2.6 3.6 1 0 2.2-.5 2.5-1.1.4-.6 3.7-1 7.8-.8 9.7.2 12.7-.7 12.7-3.7 0-2-.5-2.3-4.7-2.6l-4.8-.3.4-19.8c.2-14.6 0-20.1-.9-21.2-.7-.8-1.5-1.4-1.9-1.4-.3.1-1.9.4-3.6.8z"/></g></svg>