<?xml version="1.0" standalone="no"?>
<!DOCTYPE svg PUBLIC "-//W3C//DTD SVG 20010904//EN"
 "http://www.w3.org/TR/2001/REC-SVG-20010904/DTD/svg10.dtd">
<svg version="1.0" xmlns="http://www.w3.org/2000/svg"
 width="465.000000pt" height="66.000000pt" viewBox="0 0 465.000000 66.000000"
 preserveAspectRatio="xMidYMid meet">
<metadata>
Created by potrace 1.10, written by Peter Selinger 2001-2011
</metadata>
<g transform="translate(0.000000,66.000000) scale(0.100000,-0.100000)"
fill="#ef484d" stroke="none">
<path d="M1475 644 c-7 -11 -30 -18 -63 -22 -28 -2 -57 -11 -63 -18 -6 -8 -17
-14 -24 -14 -19 0 -94 -88 -102 -119 -3 -13 -12 -36 -19 -50 -9 -16 -14 -59
-14 -109 0 -73 4 -91 31 -145 37 -75 41 -80 94 -116 50 -34 93 -43 195 -43 91
0 145 9 161 28 6 8 17 14 24 14 16 0 73 64 88 99 6 14 18 34 26 44 15 17 13
21 -21 53 -21 19 -42 34 -48 34 -10 0 -40 -52 -40 -71 0 -23 -62 -88 -103
-108 -53 -26 -148 -29 -167 -6 -7 8 -18 15 -24 15 -18 1 -62 42 -79 75 -75
143 -30 293 108 354 64 28 88 26 165 -13 60 -30 67 -37 85 -85 22 -56 47 -71
84 -51 20 10 22 18 19 103 l-3 92 -57 0 c-39 0 -62 5 -75 18 -11 9 -34 17 -51
17 -19 0 -40 8 -52 20 -24 24 -61 26 -75 4z"/>
<path d="M2155 644 c-7 -11 -30 -18 -63 -22 -28 -2 -57 -11 -63 -18 -6 -8 -17
-14 -24 -14 -17 0 -78 -71 -107 -124 -20 -36 -23 -55 -22 -151 1 -93 4 -116
22 -151 62 -116 139 -157 292 -157 130 0 156 8 224 77 47 47 65 74 79 117 62
199 -46 401 -225 424 -32 4 -48 11 -48 21 0 20 -52 18 -65 -2z m80 -93 c3 -5
19 -12 35 -16 17 -4 50 -26 74 -51 72 -71 86 -186 36 -287 -49 -98 -179 -146
-270 -99 -57 29 -76 45 -109 93 -28 42 -31 54 -31 123 0 65 4 83 26 118 29 46
82 98 100 98 6 0 25 7 40 15 32 17 90 20 99 6z"/>
<path d="M4280 645 c0 -11 -11 -15 -42 -15 -41 0 -47 -4 -161 -120 -65 -66
-123 -118 -128 -114 -11 7 -12 124 0 143 5 8 16 11 30 6 28 -9 51 10 51 43 0
32 -28 54 -53 40 -21 -11 -152 -7 -179 6 -14 6 -20 2 -28 -19 -5 -14 -7 -38
-4 -52 6 -21 11 -24 34 -19 17 3 33 0 39 -7 6 -9 10 -98 10 -248 -1 -288 3
-307 51 -277 15 10 26 10 53 0 61 -22 77 -13 77 44 0 24 -9 28 -57 24 -18 -1
-23 5 -27 32 -11 75 -14 148 -5 149 5 1 13 2 18 3 4 1 35 -33 68 -74 33 -41
84 -100 114 -130 54 -55 55 -55 117 -57 57 -1 63 1 68 22 11 43 1 60 -33 59
-25 -2 -40 6 -65 33 -18 20 -70 74 -115 121 -46 47 -83 91 -83 97 0 7 19 28
43 47 23 20 69 63 102 97 56 58 63 62 100 59 39 -3 40 -2 43 30 3 33 -16 92
-30 92 -5 0 -8 -7 -8 -15z"/>
<path d="M4513 648 c1 -7 -5 -13 -13 -13 -29 -1 -40 -17 -40 -59 0 -43 1 -44
38 -48 20 -3 43 -3 50 0 15 5 16 73 0 107 -11 25 -40 36 -35 13z"/>
<path d="M1100 629 c-9 -6 -109 -9 -245 -8 l-230 2 0 -39 c0 -37 2 -39 30 -39
56 -1 55 4 49 -261 -2 -135 -2 -255 1 -265 7 -20 40 -26 50 -9 9 14 246 13
317 -2 66 -14 78 -7 78 44 0 38 -18 44 -112 36 -46 -3 -118 -7 -160 -7 -68 -1
-78 1 -79 17 -3 50 -1 183 3 187 3 3 56 1 119 -4 125 -10 129 -9 129 45 0 49
-13 54 -130 45 -58 -5 -109 -5 -114 -1 -8 8 -15 144 -8 166 3 12 231 12 250 0
7 -4 9 -23 5 -51 -5 -42 -4 -44 21 -51 15 -3 38 -2 52 5 22 10 24 16 24 89 0
63 -4 82 -18 95 -12 11 -22 13 -32 6z"/>
<path d="M2518 624 c-11 -10 -10 -56 1 -73 6 -9 19 -12 40 -8 18 4 33 2 37 -5
4 -6 7 -128 8 -272 l1 -261 47 -3 c44 -3 48 -1 54 23 4 15 3 79 -1 144 -6 117
-6 118 16 124 33 9 80 -3 85 -22 3 -9 12 -32 21 -51 8 -19 21 -48 28 -65 24
-57 55 -120 68 -135 8 -11 33 -16 79 -17 l67 -2 7 35 c8 42 2 49 -42 49 -38 0
-45 9 -95 120 -12 28 -27 53 -32 56 -16 11 -3 53 18 59 61 16 95 70 95 150 0
59 -1 62 -46 105 l-46 45 -166 0 c-92 0 -183 3 -202 6 -19 3 -38 2 -42 -2z
m359 -93 c27 -14 53 -50 53 -72 0 -9 -14 -31 -32 -48 -30 -30 -35 -31 -115
-31 l-83 0 0 80 c0 60 4 81 15 88 19 10 133 -1 162 -17z"/>
<path d="M3396 610 c-8 -8 -16 -26 -19 -40 -3 -14 -15 -50 -26 -80 -12 -30
-31 -84 -43 -120 -11 -36 -26 -78 -33 -95 -18 -42 -35 -94 -45 -133 -12 -48
-28 -64 -61 -57 -33 8 -42 -5 -34 -48 l6 -33 75 0 c72 0 75 1 80 26 10 44 56
175 66 185 5 5 50 10 99 10 l91 1 25 -54 c29 -65 27 -86 -10 -90 -34 -4 -41
-19 -28 -55 8 -19 18 -27 35 -27 14 0 28 5 31 10 9 14 101 12 125 -2 28 -18
54 1 58 41 3 24 -1 31 -15 32 -10 1 -26 2 -36 3 -25 1 -59 68 -87 171 -16 58
-41 123 -80 208 -25 55 -21 77 14 77 28 0 43 32 32 67 -5 17 -17 19 -107 18
-76 0 -103 -4 -113 -15z m88 -127 c3 -10 8 -36 12 -58 3 -22 13 -50 21 -63 27
-43 14 -57 -55 -58 -72 -2 -96 14 -68 44 9 10 16 28 16 40 0 11 4 23 9 26 5 4
12 24 16 46 5 30 11 40 25 40 10 0 21 -8 24 -17z"/>
<path d="M4 606 c-12 -31 1 -51 36 -56 l35 -5 3 -274 2 -273 28 7 c15 4 93 9
173 11 125 2 152 6 186 24 37 19 93 71 93 87 0 3 6 14 14 22 23 27 48 149 41
200 -8 57 -25 111 -42 132 -7 8 -13 20 -13 25 0 15 -74 84 -90 84 -8 0 -24 7
-34 15 -29 22 -424 22 -432 1z m349 -72 c41 -5 56 -14 97 -55 43 -43 49 -55
56 -105 14 -114 -9 -198 -67 -241 -45 -34 -122 -54 -195 -51 l-69 3 -3 220
c-1 121 0 226 3 233 5 14 27 13 178 -4z"/>
<path d="M4495 501 l-30 -6 -2 -190 c-1 -105 -2 -198 -3 -209 0 -14 -5 -17
-23 -13 -36 10 -51 -6 -43 -47 5 -26 12 -36 26 -36 10 0 22 5 25 11 4 6 37 10
78 8 97 -2 127 7 127 37 0 20 -5 23 -47 26 l-48 3 4 198 c2 146 0 201 -9 212
-7 8 -15 14 -19 14 -3 -1 -19 -4 -36 -8z"/>
</g>
</svg>
